<svg width="24" height="24" viewBox="0 0 24 24" fill="none" xmlns="http://www.w3.org/2000/svg">
<path d="M11.9608 23.9826C11.6428 23.9826 11.3378 23.8562 11.1129 23.6314C10.8881 23.4065 10.7617 23.1015 10.7617 22.7835V1.19913C10.7617 0.8811 10.8881 0.576097 11.1129 0.351217C11.3378 0.126337 11.6428 0 11.9608 0C12.2789 0 12.5839 0.126337 12.8088 0.351217C13.0336 0.576097 13.16 0.8811 13.16 1.19913V22.7835C13.16 23.1015 13.0336 23.4065 12.8088 23.6314C12.5839 23.8562 12.2789 23.9826 11.9608 23.9826Z" fill="#5FA7CC"/>
<path d="M22.7835 13.1915H1.19913C0.8811 13.1915 0.576097 13.0651 0.351217 12.8403C0.126337 12.6154 0 12.3104 0 11.9923C0 11.6743 0.126337 11.3693 0.351217 11.1444C0.576097 10.9195 0.8811 10.7932 1.19913 10.7932H22.7835C23.1015 10.7932 23.4065 10.9195 23.6314 11.1444C23.8562 11.3693 23.9826 11.6743 23.9826 11.9923C23.9826 12.3104 23.8562 12.6154 23.6314 12.8403C23.4065 13.0651 23.1015 13.1915 22.7835 13.1915Z" fill="#5FA7CC"/>
</svg>
